<!-- Generated by IcoMoon.io -->
<svg version="1.1" xmlns="http://www.w3.org/2000/svg" width="32" height="32" viewBox="0 0 32 32">
<title>logo</title>
<path d="M16.004 3.179c-1.156 0-2.093 0.975-2.093 2.178v0c0 1.203 0.937 2.178 2.093 2.178v0c1.156 0 2.093-0.975 2.093-2.178v0c0-1.203-0.937-2.178-2.093-2.178v0zM17.738 7.819l-3.379 0.033-7.998 14.731h3.686l5.953-11.383 2.427 4.735 3.076-0.886zM21.783 15.537l-9.989 4.048 8.305-0.308 1.638 3.291h4.028z"></path>
<path d="M1.354 26.866l-1.144 2.24h0.512l0.244-0.52 0.972 0 0.25 0.52h0.515l-1.138-2.24zM1.184 28.171l0.273-0.601 0.273 0.601z"></path>
<path d="M6.427 27.137v1.705c0 0.216 0.097 0.265 0.299 0.265h1.434c0.213 0 0.299-0.091 0.299-0.268v-0.435l-0.486-0.132 0.003 0.382h-1.064v-1.332h1.062l0.001 0.364 0.482-0.099v-0.45c0-0.216-0.077-0.268-0.302-0.268h-1.429c-0.213 0-0.299 0.051-0.299 0.268z"></path>
<path d="M12.357 27.137v1.705c0 0.216 0.097 0.265 0.299 0.265h1.434c0.213 0 0.299-0.091 0.299-0.268v-0.435l-0.484-0.129 0 0.379h-1.064v-1.332h1.062l0.003 0.368 0.481-0.103v-0.45c0-0.216-0.077-0.268-0.302-0.268h-1.429c-0.213 0-0.299 0.051-0.299 0.268z"></path>
<path d="M18.287 26.869v2.237h1.893v-0.453h-1.409v-0.474h0.933v-0.453h-0.933v-0.406h1.395v-0.453z"></path>
<path d="M26.025 28.839v-0.766c0-0.213-0.077-0.268-0.299-0.268l-1.201-0.093v-0.391h0.993l-0 0.291 0.484-0.083v-0.393c0-0.213-0.071-0.268-0.299-0.268h-1.363c-0.213 0-0.299 0.051-0.299 0.268v0.669c0 0.219 0.085 0.268 0.299 0.268l1.201 0.093v0.488h-1.076l0-0.342-0.481 0.069v0.458c0 0.216 0.094 0.268 0.293 0.268h1.449c0.213 0 0.299-0.091 0.299-0.268z"></path>
<path d="M31.916 28.839v-0.766c0-0.213-0.077-0.268-0.299-0.268l-1.201-0.093v-0.391h0.993l-0.001 0.302 0.485-0.095v-0.393c0-0.213-0.071-0.268-0.299-0.268h-1.363c-0.213 0-0.299 0.051-0.299 0.268v0.669c0 0.219 0.085 0.268 0.299 0.268l1.201 0.093v0.488h-1.076l0-0.353-0.481 0.080v0.458c0 0.216 0.094 0.268 0.293 0.268h1.449c0.213 0 0.299-0.091 0.299-0.268z"></path>
<path d="M0.734 25.47v-1.487h1.387v1.487zM0.223 23.798v1.857c0 0.236 0.106 0.292 0.326 0.292h1.754c0.233 0 0.329-0.099 0.329-0.292v-1.857c0-0.236-0.081-0.292-0.326-0.292h-1.757c-0.233 0-0.326 0.056-0.326 0.292z"></path>
<path d="M4.366 24.956h1.197c0.323 0 0.497-0.165 0.497-0.432v-0.584c0-0.233-0.127-0.435-0.494-0.435h-1.711v2.44h0.511zM5.277 24.48l-0.911-0v-0.496l0.875 0.003c0.257 0.001 0.299-0.019 0.299 0.182v0.16c0 0.146-0.042 0.152-0.264 0.152z"></path>
<path d="M7.269 23.506v2.44h2.065v-0.477h-1.554v-0.542h1.061l0.002-0.477h-1.062v-0.468h1.538v-0.477z"></path>
<path d="M10.495 23.506v2.44h0.511v-1.616l1.418 1.616h0.495v-2.44h-0.511v1.672l-1.465-1.655z"></path>
<path d="M16.976 24.479h-0.906l0.006-0.496h0.866c0.261 0 0.31-0.043 0.31 0.184v0.163c0 0.189-0.053 0.15-0.276 0.15zM16.869 24.956h0.397c0.323-0.003 0.497-0.165 0.497-0.432v-0.584c0-0.233-0.13-0.435-0.494-0.435h-1.711v2.44h0.511v-0.99h0.164l0.978 0.99h0.632z"></path>
<path d="M20.059 23.503l-1.248 2.443h0.542l0.277-0.517 1.079-0.012 0.277 0.528h0.545l-1.242-2.443zM19.825 24.935l0.346-0.787 0.346 0.787z"></path>
<path d="M22.617 23.506v2.44h0.511v-1.616l1.418 1.616h0.495v-2.44h-0.511v1.672l-1.465-1.672z"></path>
<path d="M28.63 25.655v-1.145h-1.303v0.511h0.792v0.449h-1.353v-1.487h1.353v0.225l0.511-0.087v-0.323c0-0.233-0.078-0.292-0.326-0.292h-1.723c-0.233 0-0.326 0.056-0.326 0.292v1.857c0 0.236 0.102 0.292 0.326 0.292h1.723c0.233 0 0.326-0.099 0.326-0.292z"></path>
<path d="M29.839 23.506v2.44h2.065v-0.477h-1.554v-0.542h1.018v-0.477h-1.018v-0.468h1.538v-0.477z"></path>
</svg>
