<svg aria-hidden="true" style="position: absolute; width: 0; height: 0; overflow: hidden;" version="1.1" xmlns="http://www.w3.org/2000/svg" xmlns:xlink="http://www.w3.org/1999/xlink">
<defs>
<symbol id="icon-logo" viewBox="0 0 32 32">
<title>logo</title>
<path d="M16.004 3.179c-1.156 0-2.093 0.975-2.093 2.178v0c0 1.203 0.937 2.178 2.093 2.178v0c1.156 0 2.093-0.975 2.093-2.178v0c0-1.203-0.937-2.178-2.093-2.178v0zM17.738 7.819l-3.379 0.033-7.998 14.731h3.686l5.953-11.383 2.427 4.735 3.076-0.886zM21.783 15.537l-9.989 4.048 8.305-0.308 1.638 3.291h4.028z"></path>
<path d="M1.354 26.866l-1.144 2.24h0.512l0.244-0.52 0.972 0 0.25 0.52h0.515l-1.138-2.24zM1.184 28.171l0.273-0.601 0.273 0.601z"></path>
<path d="M6.427 27.137v1.705c0 0.216 0.097 0.265 0.299 0.265h1.434c0.213 0 0.299-0.091 0.299-0.268v-0.435l-0.486-0.132 0.003 0.382h-1.064v-1.332h1.062l0.001 0.364 0.482-0.099v-0.45c0-0.216-0.077-0.268-0.302-0.268h-1.429c-0.213 0-0.299 0.051-0.299 0.268z"></path>
<path d="M12.357 27.137v1.705c0 0.216 0.097 0.265 0.299 0.265h1.434c0.213 0 0.299-0.091 0.299-0.268v-0.435l-0.484-0.129 0 0.379h-1.064v-1.332h1.062l0.003 0.368 0.481-0.103v-0.45c0-0.216-0.077-0.268-0.302-0.268h-1.429c-0.213 0-0.299 0.051-0.299 0.268z"></path>
<path d="M18.287 26.869v2.237h1.893v-0.453h-1.409v-0.474h0.933v-0.453h-0.933v-0.406h1.395v-0.453z"></path>
<path d="M26.025 28.839v-0.766c0-0.213-0.077-0.268-0.299-0.268l-1.201-0.093v-0.391h0.993l-0 0.291 0.484-0.083v-0.393c0-0.213-0.071-0.268-0.299-0.268h-1.363c-0.213 0-0.299 0.051-0.299 0.268v0.669c0 0.219 0.085 0.268 0.299 0.268l1.201 0.093v0.488h-1.076l0-0.342-0.481 0.069v0.458c0 0.216 0.094 0.268 0.293 0.268h1.449c0.213 0 0.299-0.091 0.299-0.268z"></path>
<path d="M31.916 28.839v-0.766c0-0.213-0.077-0.268-0.299-0.268l-1.201-0.093v-0.391h0.993l-0.001 0.302 0.485-0.095v-0.393c0-0.213-0.071-0.268-0.299-0.268h-1.363c-0.213 0-0.299 0.051-0.299 0.268v0.669c0 0.219 0.085 0.268 0.299 0.268l1.201 0.093v0.488h-1.076l0-0.353-0.481 0.080v0.458c0 0.216 0.094 0.268 0.293 0.268h1.449c0.213 0 0.299-0.091 0.299-0.268z"></path>
<path d="M0.734 25.47v-1.487h1.387v1.487zM0.223 23.798v1.857c0 0.236 0.106 0.292 0.326 0.292h1.754c0.233 0 0.329-0.099 0.329-0.292v-1.857c0-0.236-0.081-0.292-0.326-0.292h-1.757c-0.233 0-0.326 0.056-0.326 0.292z"></path>
<path d="M4.366 24.956h1.197c0.323 0 0.497-0.165 0.497-0.432v-0.584c0-0.233-0.127-0.435-0.494-0.435h-1.711v2.44h0.511zM5.277 24.48l-0.911-0v-0.496l0.875 0.003c0.257 0.001 0.299-0.019 0.299 0.182v0.16c0 0.146-0.042 0.152-0.264 0.152z"></path>
<path d="M7.269 23.506v2.44h2.065v-0.477h-1.554v-0.542h1.061l0.002-0.477h-1.062v-0.468h1.538v-0.477z"></path>
<path d="M10.495 23.506v2.44h0.511v-1.616l1.418 1.616h0.495v-2.44h-0.511v1.672l-1.465-1.655z"></path>
<path d="M16.976 24.479h-0.906l0.006-0.496h0.866c0.261 0 0.31-0.043 0.31 0.184v0.163c0 0.189-0.053 0.15-0.276 0.15zM16.869 24.956h0.397c0.323-0.003 0.497-0.165 0.497-0.432v-0.584c0-0.233-0.13-0.435-0.494-0.435h-1.711v2.44h0.511v-0.99h0.164l0.978 0.99h0.632z"></path>
<path d="M20.059 23.503l-1.248 2.443h0.542l0.277-0.517 1.079-0.012 0.277 0.528h0.545l-1.242-2.443zM19.825 24.935l0.346-0.787 0.346 0.787z"></path>
<path d="M22.617 23.506v2.44h0.511v-1.616l1.418 1.616h0.495v-2.44h-0.511v1.672l-1.465-1.672z"></path>
<path d="M28.63 25.655v-1.145h-1.303v0.511h0.792v0.449h-1.353v-1.487h1.353v0.225l0.511-0.087v-0.323c0-0.233-0.078-0.292-0.326-0.292h-1.723c-0.233 0-0.326 0.056-0.326 0.292v1.857c0 0.236 0.102 0.292 0.326 0.292h1.723c0.233 0 0.326-0.099 0.326-0.292z"></path>
<path d="M29.839 23.506v2.44h2.065v-0.477h-1.554v-0.542h1.018v-0.477h-1.018v-0.468h1.538v-0.477z"></path>
</symbol>
<symbol id="icon-bookmark" viewBox="0 0 32 32">
<title>bookmark</title>
<path d="M22.4 3.2v27.2l-6.4-6.4-6.4 6.4v-27.2c0-0.885 0.936-1.632 1.6-1.6h9.6c1.102-0.032 1.6 0.715 1.6 1.6z"></path>
</symbol>
<symbol id="icon-chevron-thin-right" viewBox="0 0 32 32">
<title>chevron-thin-right</title>
<path d="M21.2 16l-11.426-11.872c-0.429-0.432-0.429-1.131 0-1.566 0.429-0.432 1.122-0.432 1.55 0l12.528 12.653c0.429 0.434 0.429 1.134 0 1.566l-12.528 12.653c-0.429 0.434-1.122 0.432-1.55 0-0.429-0.43-0.429-1.131 0-1.566l11.426-11.867z"></path>
</symbol>
<symbol id="icon-aircraft-take-off" viewBox="0 0 32 32">
<title>aircraft-take-off</title>
<path d="M31.792 10.325c0.19 0.411 0.203 2.064-7.814 5.827l-7.861 3.69c-2.736 1.285-6.706 2.974-8.456 3.442-1.226 0.326-2.395-0.506-2.395-0.506s-3.53-3.16-4.467-3.87c-0.936-0.71-0.856-1.072 0.344-1.456 0.747-0.238 5.008 0.789 6.824 1.248 2.142-1.28 4.099-2.378 5.026-2.877-2.234-1.653-6.413-4.739-7.746-5.68-1.278-0.904 0.016-1.229 0.016-1.229 0.589-0.158 1.859-0.365 2.499-0.23 4.354 0.91 11.621 3.314 12.178 3.498 1.331-0.698 3.405-1.747 4.675-2.344 3.32-1.558 6.923-0.059 7.178 0.488z"></path>
</symbol>
<symbol id="icon-chat" viewBox="0 0 32 32">
<title>chat</title>
<path d="M9.28 19.52v-9.92h-6.080c-1.76 0-3.2 1.44-3.2 3.2v9.6c0 1.76 1.44 3.2 3.2 3.2h1.6v4.8l4.8-4.8h8c1.76 0 3.2-1.44 3.2-3.2v-2.912c-0.102 0.022-0.211 0.034-0.32 0.034l-11.2-0.002zM28.8 1.6h-14.4c-1.76 0-3.2 1.44-3.2 3.2v12.8h11.2l4.8 4.8v-4.8h1.6c1.76 0 3.2-1.438 3.2-3.2v-9.6c0-1.76-1.44-3.2-3.2-3.2z"></path>
</symbol>
<symbol id="icon-home" viewBox="0 0 32 32">
<title>home</title>
<path d="M29.875 17.6h-2.675v9.6c0 0.712-0.31 1.6-1.6 1.6h-6.4v-9.6h-6.4v9.6h-6.4c-1.29 0-1.6-0.888-1.6-1.6v-9.6h-2.675c-0.957 0-0.752-0.518-0.096-1.197l12.838-12.851c0.312-0.323 0.722-0.483 1.133-0.499 0.411 0.016 0.821 0.174 1.133 0.499l12.837 12.85c0.658 0.68 0.862 1.198-0.094 1.198z"></path>
</symbol>
<symbol id="icon-key" viewBox="0 0 32 32">
<title>key</title>
<path d="M28.306 7.56c-0.805-4.763-5.152-7.947-9.71-7.106-4.56 0.84-8.41 4.506-7.605 9.272 0.171 1.026 0.653 2.63 1.221 3.784l-8.28 12.357c-0.306 0.456-0.478 1.278-0.387 1.826l0.533 3.154c0.093 0.547 0.595 0.915 1.12 0.822l2.426-0.45c0.525-0.094 1.19-0.557 1.478-1.022l3.275-5.298 0.029-0.035 2.218-0.41 3.824-6.206c1.256 0.222 3.059 0.147 4.125-0.050 4.557-0.842 6.539-5.872 5.734-10.638zM24.266 10.003c-1.254 1.872-2.534 0.554-4.325-0.76-1.79-1.309-3.416-2.115-2.163-3.987 1.254-1.872 3.722-2.328 5.515-1.016 1.792 1.31 2.226 3.891 0.973 5.763z"></path>
</symbol>
<symbol id="icon-location-pin" viewBox="0 0 32 32">
<title>location-pin</title>
<path d="M16 3.214c-4.419 0-8 3.566-8 7.984 0 7.638 8 17.6 8 17.6s8-9.963 8-17.6c0-4.416-3.581-7.984-8-7.984zM16 15.616c-2.387 0-4.32-1.934-4.32-4.32s1.933-4.32 4.32-4.32c2.384 0 4.318 1.934 4.318 4.32s-1.934 4.32-4.318 4.32z"></path>
</symbol>
<symbol id="icon-magnifying-glass" viewBox="0 0 32 32">
<title>magnifying-glass</title>
<path d="M28.072 24.747l-6.046-6.046c0.912-1.496 1.437-3.256 1.437-5.136 0-5.467-4.738-10.203-10.205-10.203-5.467-0.002-9.898 4.43-9.898 9.898 0 5.466 4.738 10.203 10.203 10.203 1.819 0 3.52-0.494 4.984-1.35l6.078 6.082c0.595 0.594 1.56 0.594 2.154 0l1.509-1.509c0.594-0.594 0.378-1.344-0.216-1.938zM6.406 13.259c0-3.786 3.067-6.853 6.851-6.853 3.786 0 7.158 3.371 7.158 7.158 0 3.784-3.069 6.853-6.853 6.853-3.786-0.002-7.157-3.374-7.157-7.158z"></path>
</symbol>
<symbol id="icon-map" viewBox="0 0 32 32">
<title>map</title>
<path d="M31.115 5.949l-9.6-4.8c-0.45-0.226-0.981-0.226-1.432 0l-9.008 4.504-8.97-2.99c-0.49-0.163-1.024-0.082-1.442 0.221-0.418 0.301-0.664 0.784-0.664 1.298v20.802c0 0.606 0.342 1.16 0.885 1.43l9.6 4.8c0.226 0.112 0.47 0.17 0.715 0.17s0.491-0.056 0.715-0.17l9.008-4.502 8.97 2.99c0.488 0.16 1.024 0.078 1.442-0.222s0.664-0.784 0.664-1.296v-20.803c0.002-0.606-0.341-1.16-0.883-1.43zM12.8 8.37l6.4-3.2v18.821l-6.4 3.2v-18.821zM3.2 6.4l6.4 2.133v18.658l-6.4-3.2v-17.59zM28.8 25.963l-6.4-2.134v-18.659l6.4 3.2v17.594z"></path>
</symbol>
<symbol id="icon-star" viewBox="0 0 32 32">
<title>star</title>
<path d="M16 2.080l3.821 10.755h10.259l-8.371 6.317 2.994 11.085-8.702-6.646-8.701 6.646 2.992-11.085-8.373-6.317h10.259l3.822-10.755z"></path>
</symbol>
</defs>
</svg>
